<?xml version="1.0" encoding="UTF-8" standalone="no"?>
<svg
   height="32px"
   viewBox="0 0 32 32"
   width="32px"
   version="1.1"
   id="svg1"
   xmlns="http://www.w3.org/2000/svg">
  <rect
     style="fill:#ffffff;stroke-width:0.5;stroke-dasharray:none;stroke:#000000;stroke-opacity:0.5;fill-opacity:1"
     id="rect1"
     width="4"
     height="4"
     x="5.9879999"
     y="6" />
  <rect
     style="fill:#ffffff;stroke-width:0.5;stroke:#000000;stroke-opacity:0.5;stroke-dasharray:none;fill-opacity:1"
     id="rect2"
     width="4"
     height="4"
     x="13.988"
     y="6" />
  <rect
     style="fill:#ffffff;stroke-width:0.5;stroke:#000000;stroke-opacity:0.5;stroke-dasharray:none;fill-opacity:1"
     id="rect3"
     width="4"
     height="4"
     x="5.9879999"
     y="14" />
  <rect
     style="fill:#ffffff;stroke-width:0.5;stroke:#000000;stroke-opacity:0.5;stroke-dasharray:none;fill-opacity:1"
     id="rect4"
     width="4"
     height="4"
     x="13.988"
     y="14" />
  <rect
     style="fill:#ffffff;stroke-width:0.5;stroke:#000000;stroke-opacity:0.5;stroke-dasharray:none;fill-opacity:1"
     id="rect5"
     width="4"
     height="4"
     x="5.9879999"
     y="22" />
  <rect
     style="fill:#ffffff;stroke-width:0.5;stroke:#000000;stroke-opacity:0.5;stroke-dasharray:none;fill-opacity:1"
     id="rect6"
     width="4"
     height="4"
     x="13.988"
     y="22" />
  <path
     d="m 20.289947,25.999989 q -1.834322,0 -2.840241,-0.85799 -1.005918,-0.872782 -1.005918,-2.470417 0,-1.050298 0.236686,-2.322489 l 1.508878,-7.781076 H 16 l 0.547338,-2.8106547 h 2.396453 l 2.02663,-3.7574017 h 2.603554 l -0.71006,3.7574017 h 2.98817 l -0.517752,2.8106547 h -3.032549 l -1.538464,7.914212 q -0.162722,0.828404 -0.162722,1.31657 0,0.680475 0.340237,1.020712 0.35503,0.325444 0.946747,0.325444 0.473374,0 1.597636,-0.192308 l -0.473374,2.692311 q -1.198226,0.355031 -2.721897,0.355031 z"
     id="text1"
     style="fill:#ffffff;stroke-width:0.5;stroke-dasharray:none;stroke:#000000;stroke-opacity:0.5;fill-opacity:1"
     aria-label="t" />
</svg>
